<?xml version="1.0" encoding="UTF-8" standalone="no"?>
<!-- Generator: Adobe Illustrator 19.1.0, SVG Export Plug-In . SVG Version: 6.00 Build 0)  -->

<svg
   xmlns:dc="http://purl.org/dc/elements/1.1/"
   xmlns:cc="http://creativecommons.org/ns#"
   xmlns:rdf="http://www.w3.org/1999/02/22-rdf-syntax-ns#"
   xmlns:svg="http://www.w3.org/2000/svg"
   xmlns="http://www.w3.org/2000/svg"
   xmlns:sodipodi="http://sodipodi.sourceforge.net/DTD/sodipodi-0.dtd"
   xmlns:inkscape="http://www.inkscape.org/namespaces/inkscape"
   version="1.1"
   id="Capa_1"
   x="0px"
   y="0px"
   viewBox="0 0 54 54"
   style="enable-background:new 0 0 54 54;"
   xml:space="preserve"
   inkscape:version="0.91 r13725"
   sodipodi:docname="icon2.svg"><metadata
     id="metadata42"><rdf:RDF><cc:Work
         rdf:about=""><dc:format>image/svg+xml</dc:format><dc:type
           rdf:resource="http://purl.org/dc/dcmitype/StillImage" /></cc:Work></rdf:RDF></metadata><defs
     id="defs40" /><sodipodi:namedview
     pagecolor="#ffffff"
     bordercolor="#666666"
     borderopacity="1"
     objecttolerance="10"
     gridtolerance="10"
     guidetolerance="10"
     inkscape:pageopacity="0"
     inkscape:pageshadow="2"
     inkscape:window-width="794"
     inkscape:window-height="480"
     id="namedview38"
     showgrid="false"
     inkscape:zoom="4.3703704"
     inkscape:cx="27"
     inkscape:cy="27"
     inkscape:window-x="640"
     inkscape:window-y="284"
     inkscape:window-maximized="0"
     inkscape:current-layer="Capa_1" /><g
     id="sun_1_"
     style="fill:#ffffff"><g
       id="g4"
       style="fill:#ffffff"><path
         d="M6.154,44.896l2.854,2.854l5.948-5.947l-2.854-2.854L6.154,44.896z M14.955,12.081L9.007,6.133L6.154,8.987l5.948,5.948    L14.955,12.081z M47.771,8.987l-2.854-2.854L38.97,12.08l2.854,2.854L47.771,8.987z M29,0h-4v9h4V0z M9,25H0v4h9V25z     M38.97,41.802l5.948,5.947l2.854-2.854l-5.948-5.947L38.97,41.802z M45,25v4h9v-4H45z M25,54h4v-9h-4V54z M27,13    c-7.802,0-14,6.198-14,14c0,7.802,6.198,14,14,14c7.802,0,14-6.198,14-14C41,19.198,34.802,13,27,13z M27,37    c-5.564,0-10-4.436-10-10s4.436-10,10-10c5.564,0,10,4.436,10,10S32.564,37,27,37z"
         id="path6"
         style="fill:#ffffff" /></g></g><g
     id="g8" /><g
     id="g10" /><g
     id="g12" /><g
     id="g14" /><g
     id="g16" /><g
     id="g18" /><g
     id="g20" /><g
     id="g22" /><g
     id="g24" /><g
     id="g26" /><g
     id="g28" /><g
     id="g30" /><g
     id="g32" /><g
     id="g34" /><g
     id="g36" /></svg>